inDegrees=yes
name=ik_S54_A10_T01
DataType=double
version=3
OpenSimVersion=4.3-2021-08-27-4bc7ad9
endheader
time	pelvis_tilt	pelvis_list	pelvis_rotation	pelvis_tx	pelvis_ty	pelvis_tz	hip_flexion_r	hip_adduction_r	hip_rotation_r	knee_angle_r	knee_angle_r_beta	ankle_angle_r	subtalar_angle_r	mtp_angle_r	hip_flexion_l	hip_adduction_l	hip_rotation_l	knee_angle_l	knee_angle_l_beta	ankle_angle_l	subtalar_angle_l	mtp_angle_l	lumbar_extension	lumbar_bending	lumbar_rotation	arm_flex_r	arm_add_r	arm_rot_r	elbow_flex_r	pro_sup_r	wrist_flex_r	wrist_dev_r	arm_flex_l	arm_add_l	arm_rot_l	elbow_flex_l	pro_sup_l	wrist_flex_l	wrist_dev_l
17.11999999999972	1.905824179465955	0.2504485854494594	14.00367400485258	0	0.9399999999999999	0	44.87377705578081	-9.999992277049195	-9.999686711133537	54.69072008037279	0.954533135689083	0	0	0	44.87377705578081	-9.999992277049195	-9.999686711133537	54.69072008037279	0.954533135689083	0	0	0	1.988478445379981	-0.2038490577656621	2.398742589123641	84.68073353473592	6.891480047504398	-1.186783428678915	46.53950914242568	49.36732384678795	0	0	83.75328080196324	-35.64239498744305	26.16994055546693	51.97749367565504	51.26308637714968	0	0
17.13999999999972	2.080502316225896	0.3045672044235685	14.04351422820996	0	0.9399999999999999	0	44.87544280011925	-9.999992512857631	-9.999693893441927	54.69433904405185	0.9545962985207928	0	0	0	44.87544280011925	-9.999992512857631	-9.999693893441927	54.69433904405185	0.9545962985207928	0	0	0	2.17046900548549	-0.1938632329543892	2.322994260582294	86.60013789469352	6.060296591855605	-1.834609556818226	46.58137393296823	50.37078832072363	0	0	85.91734180633249	-36.96430581835904	26.276069067411	52.97194669434558	52.89078021274892	0	0
17.15999999999972	2.175663654812591	0.3255935107703642	14.28764302997724	0	0.9399999999999999	0	44.87688956768872	-9.99999271396201	-9.999700067144538	54.69749133093831	0.9546513163059289	0	0	0	44.87688956768872	-9.99999271396201	-9.999700067144538	54.69749133093831	0.9546513163059289	0	0	0	2.270355907209215	-0.2022998078456153	2.068819603884386	86.43010768734189	5.895774329955982	-1.880327139131438	48.39990893010664	51.23627317550832	0	0	88.19123643497804	-38.29352738305137	27.20871445317516	53.8905607549807	53.94826844116776	0	0
17.17999999999972	2.3483224883331	0.3686787692871991	14.3543008612367	0	0.9399999999999999	0	44.87800732227294	-9.999992867049674	-9.999704798476486	54.69992694998001	0.9546938258775308	0	0	0	44.87800732227294	-9.999992867049674	-9.999704798476486	54.69992694998001	0.9546938258775308	0	0	0	2.442787477569806	-0.1983994980824884	1.976022441775427	88.00354717243414	5.181776744398018	-1.423627779390614	48.53425613502907	51.12977705172916	0	0	90.00380815146949	-39.47225626484975	29.35496278172868	54.62376849646279	54.43292671637396	0	0
17.19999999999972	2.540577337951035	0.402356294307553	14.4342059480362	0	0.9399999999999999	0	44.87814851160235	-9.99999289568445	-9.999705561702404	54.70016005748683	0.9546978943710359	0	0	0	44.87814851160235	-9.99999289568445	-9.999705561702404	54.70016005748683	0.9546978943710359	0	0	0	2.640804926913674	-0.2184263982184645	1.925186573608318	89.16181142974648	4.403458827803736	0.0918549893429003	48.97696284659175	51.00238727181439	0	0	91.48599978042893	-40.26528771302261	32.95082318217358	54.9503605000767	53.92286113061601	0	0
17.21999999999972	2.693692373352146	0.4459354533657068	14.35506143699033	0	0.9399999999999999	0	44.87834739829358	-9.99999293538003	-9.999706627196179	54.70049067627409	0.9547036647574426	0	0	0	44.87834739829358	-9.99999293538003	-9.999706627196179	54.70049067627409	0.9547036647574426	0	0	0	2.800834386741021	-0.2116453923574845	2.03127879803846	90.00455622243102	3.510632583852157	2.129060845559195	49.60804074198171	51.1048501367087	0	0	92.51634855636772	-40.80170144714322	37.00006725197176	55.21324463534629	53.18641095675272	0	0
17.23999999999972	2.839070435628112	0.5000507573416222	14.29534730034978	0	0.9399999999999999	0	44.87853976481658	-9.999992973627982	-9.999707655778565	54.70081064178394	0.9547092492090822	0	0	0	44.87853976481658	-9.999992973627982	-9.999707655778565	54.70081064178394	0.9547092492090822	0	0	0	2.955942963390316	-0.1922574827460493	2.159819618125031	90.52222900495576	2.63807738892808	4.188791041907724	50.23030098067319	51.43377789063135	0	0	93.35135446550204	-41.15606473579945	40.79194410119464	55.16336996358872	52.61889869745821	0	0
